<?xml version="1.0" standalone="no"?>
<!DOCTYPE svg PUBLIC "-//W3C//DTD SVG 20010904//EN"
 "http://www.w3.org/TR/2001/REC-SVG-20010904/DTD/svg10.dtd">
<svg version="1.0" xmlns="http://www.w3.org/2000/svg"
 width="756.000000pt" height="570.000000pt" viewBox="0 0 756.000000 570.000000"
 preserveAspectRatio="xMidYMid meet">

<g transform="translate(0.000000,570.000000) scale(0.100000,-0.100000)"
fill="#000000" stroke="none">
<path d="M3415 5665 c-5 -2 -22 -6 -37 -9 -37 -8 -85 -51 -109 -99 -17 -33
-20 -54 -17 -117 3 -66 7 -82 32 -114 60 -79 183 -101 268 -47 52 33 76 67 59
84 -7 7 -21 0 -46 -22 -27 -24 -45 -31 -76 -31 -71 0 -101 32 -112 118 l-5 42
125 0 125 0 -7 47 c-9 64 -28 97 -67 121 -31 19 -111 36 -133 27z m54 -49 c6
-7 14 -34 17 -60 l7 -46 -57 0 c-53 0 -56 1 -56 24 0 72 55 123 89 82z"/>
<path d="M2993 5643 c-85 -16 -109 -36 -59 -49 20 -5 27 -16 35 -55 6 -28 11
-54 11 -59 0 -8 -15 -13 -92 -26 l-36 -6 -8 58 c-6 51 -4 59 14 74 41 33 12
40 -93 21 -75 -13 -101 -21 -103 -33 -2 -12 5 -18 25 -20 27 -3 28 -5 50 -118
28 -153 29 -190 3 -197 -19 -5 -26 -23 -15 -35 3 -3 36 1 73 7 37 7 84 16 105
19 38 7 54 36 18 36 -26 0 -38 18 -46 70 -3 25 -9 52 -11 62 -5 17 0 19 87 34
l36 6 13 -68 c12 -65 12 -68 -9 -85 -21 -17 -28 -39 -13 -39 4 0 53 7 110 17
68 11 102 21 102 30 0 7 -6 13 -13 13 -36 0 -48 27 -73 164 -25 142 -24 166
13 166 25 0 8 25 -18 27 -13 1 -61 -6 -106 -14z"/>
<path d="M3795 5597 c-81 -46 -121 -145 -101 -251 14 -75 97 -136 186 -136 57
0 93 15 129 54 18 20 22 29 13 38 -8 8 -19 4 -42 -16 -53 -44 -116 -33 -146
26 -33 65 3 240 55 268 29 15 65 4 56 -18 -4 -10 -9 -33 -12 -53 -4 -30 -1
-39 18 -53 49 -34 99 -8 99 53 0 47 -16 70 -63 92 -59 26 -141 25 -192 -4z"/>
<path d="M4617 5548 c-14 -18 -100 -109 -190 -202 -160 -165 -164 -169 -200
-164 -51 6 -58 -18 -12 -38 20 -8 61 -26 92 -39 30 -14 59 -25 64 -25 19 0 8
30 -16 46 -14 9 -25 23 -25 32 0 20 68 102 84 102 8 0 45 -14 85 -31 69 -31
71 -33 71 -68 0 -20 -3 -53 -7 -74 l-6 -38 -39 6 c-34 6 -39 5 -36 -10 2 -11
42 -34 113 -63 61 -26 122 -59 137 -74 32 -33 72 -36 126 -11 38 18 163 135
199 187 l20 29 32 -22 c32 -23 32 -23 14 -50 -10 -14 -47 -70 -83 -124 -62
-93 -66 -98 -97 -94 -18 1 -34 -2 -37 -9 -6 -17 174 -138 187 -125 7 7 5 16
-6 29 -9 10 -17 22 -17 26 0 4 37 61 81 127 77 113 83 120 112 117 17 -2 32 2
34 9 5 14 -284 210 -293 200 -4 -4 0 -21 9 -39 18 -37 14 -49 -39 -113 -37
-46 -118 -108 -128 -98 -3 3 -6 14 -6 23 0 22 -31 50 -55 50 -11 0 -31 -12
-46 -26 l-27 -26 -13 23 c-10 19 -10 73 0 269 7 135 14 255 17 268 4 19 -2 25
-30 37 -45 19 -39 20 -69 -17z m-44 -260 l-8 -44 -64 27 -64 27 69 73 69 74 3
-56 c2 -31 -1 -76 -5 -101z"/>
<path d="M2396 5516 c-22 -8 -52 -24 -67 -35 -16 -12 -37 -21 -49 -21 -11 0
-20 -5 -20 -10 0 -29 36 -130 47 -130 6 0 14 23 18 51 5 35 16 61 35 82 25 28
30 30 53 20 17 -8 30 -26 38 -52 15 -49 7 -69 -30 -82 -21 -8 -28 -15 -24 -29
4 -16 12 -18 47 -14 49 7 74 -13 83 -69 5 -31 1 -40 -25 -67 -17 -16 -40 -30
-51 -30 -17 0 -21 6 -21 35 0 58 -44 89 -91 65 -30 -17 -26 -83 7 -109 61 -48
204 -14 272 63 65 74 31 166 -62 166 l-44 0 29 31 c34 37 39 85 11 119 -23 29
-100 36 -156 16z"/>
<path d="M2032 5362 c-50 -26 -91 -51 -89 -57 2 -5 17 -12 33 -15 37 -7 40
-33 16 -155 l-18 -90 -48 94 c-45 89 -47 94 -30 112 13 14 14 23 7 30 -14 14
-193 -78 -193 -99 0 -10 7 -12 23 -9 12 4 27 3 33 -1 18 -11 134 -236 134
-259 0 -11 -7 -26 -15 -33 -11 -9 -13 -16 -5 -24 15 -15 192 73 188 94 -2 9
-12 14 -24 12 -41 -6 -45 17 -24 133 11 60 21 110 23 111 2 2 23 -37 47 -86
40 -82 43 -91 30 -115 -7 -14 -10 -28 -6 -32 12 -12 196 85 190 100 -3 8 -15
12 -34 9 -28 -4 -31 -1 -97 131 -64 129 -66 137 -50 155 17 19 23 42 10 41 -5
0 -50 -21 -101 -47z"/>
<path d="M1277 5088 c-141 -112 -175 -143 -166 -154 8 -10 16 -11 29 -4 44 24
58 13 186 -147 154 -194 155 -195 124 -228 -18 -19 -21 -28 -12 -37 14 -14 22
-9 172 114 69 56 123 109 137 133 61 107 -8 237 -126 237 -54 0 -107 -23 -171
-77 -24 -20 -47 -32 -51 -28 -4 4 -32 39 -63 77 l-55 70 56 43 c62 48 79 51
142 23 24 -11 49 -20 57 -20 29 0 18 19 -75 132 -3 4 -86 -57 -184 -134z m303
-193 c75 -39 106 -153 54 -194 -15 -12 -35 -21 -45 -21 -11 0 -46 35 -89 87
-75 94 -76 96 -15 127 38 20 58 20 95 1z"/>
<path d="M3145 5024 c-16 -2 -80 -11 -142 -20 -533 -73 -1058 -337 -1444 -725
-718 -724 -922 -1777 -524 -2710 183 -428 525 -833 925 -1095 329 -215 674
-344 1085 -406 121 -18 559 -18 680 0 581 87 1082 332 1474 721 70 69 98 91
119 91 35 0 119 26 149 45 14 9 23 25 23 40 0 27 -9 30 -56 16 -54 -15 -55 1
-7 64 54 71 163 236 187 284 l18 34 -31 -5 c-28 -4 -31 -2 -31 23 0 32 18 49
74 69 37 14 45 23 79 95 86 178 167 472 198 715 16 122 16 438 0 560 -102 805
-563 1487 -1277 1889 -251 141 -563 247 -869 297 -95 15 -555 28 -630 18z
m-166 -296 c6 -29 40 -228 76 -443 78 -468 88 -524 104 -553 16 -30 69 -62
104 -62 27 0 33 -12 21 -44 -5 -14 -42 -16 -305 -16 -205 0 -299 3 -299 11 0
26 22 49 49 49 15 0 51 7 81 16 l53 16 -6 56 c-3 31 -13 99 -22 150 l-18 92
-195 -2 -196 -3 -63 -106 c-76 -126 -87 -169 -50 -193 13 -9 48 -19 76 -23 28
-3 51 -9 51 -12 0 -3 -3 -16 -6 -28 l-6 -23 -235 0 -234 0 3 27 c3 25 8 29 50
35 59 8 106 36 155 93 21 24 175 262 343 529 l305 486 77 0 77 0 10 -52z m702
-614 c34 -14 45 -14 106 0 37 8 69 13 72 10 8 -7 -87 -447 -108 -505 -58 -155
-181 -230 -353 -216 -101 9 -148 38 -148 94 0 41 30 73 69 73 37 0 85 -40 112
-91 11 -22 25 -39 32 -39 27 0 78 42 98 82 21 42 51 139 45 145 -2 2 -27 -9
-56 -24 -39 -20 -67 -27 -104 -27 -93 2 -147 47 -166 140 -33 157 78 335 235
375 39 10 117 2 166 -17z m773 12 c63 -26 73 -126 18 -181 -23 -23 -33 -26
-71 -22 -67 7 -85 46 -56 120 11 28 -9 20 -54 -20 -41 -38 -41 -39 -79 -213
l-38 -175 -81 -3 -80 -3 39 178 c21 98 38 194 36 213 l-3 35 -53 0 c-42 -1
-52 2 -50 15 7 38 153 74 211 51 15 -6 37 -27 49 -47 17 -29 24 -34 33 -23 32
40 99 82 143 89 1 0 18 -6 36 -14z m488 3 c111 -24 168 -92 168 -200 0 -126
-65 -231 -178 -286 -49 -24 -69 -28 -147 -28 -111 0 -171 25 -213 88 -24 36
-27 50 -27 126 1 94 17 139 76 205 47 54 156 100 246 105 12 1 46 -4 75 -10z
m-1582 -779 c96 -16 151 -36 188 -71 42 -39 52 -66 52 -137 -1 -134 -91 -226
-283 -287 -37 -12 -68 -26 -68 -30 0 -5 32 -16 72 -26 150 -39 219 -113 219
-238 0 -161 -101 -271 -300 -326 -57 -16 -118 -19 -478 -22 l-414 -4 7 23 c10
30 4 27 70 38 61 10 99 29 113 57 20 39 204 883 198 907 -7 29 -43 51 -99 61
-36 7 -43 18 -31 49 5 14 45 16 348 16 187 0 370 -5 406 -10z m1791 -319 c40
-40 39 -82 -1 -123 -28 -27 -36 -30 -73 -25 -28 4 -49 14 -64 32 -75 86 57
197 138 116z m-413 -261 c87 -40 77 -140 -15 -140 -36 0 -76 40 -93 93 -13 42
-20 44 -61 20 -63 -38 -59 -112 8 -139 153 -60 183 -88 183 -167 0 -62 -27
-106 -85 -139 -32 -18 -60 -23 -138 -26 -118 -5 -178 9 -212 50 -31 37 -32 62
0 93 52 53 129 16 156 -74 12 -42 14 -43 48 -37 67 10 106 91 63 129 -10 10
-43 27 -73 39 -78 33 -114 57 -133 88 -31 53 -16 130 33 174 59 54 236 74 319
36z m347 -10 c38 -36 40 -76 10 -192 -57 -216 -55 -232 26 -226 45 3 48 1 43
-17 -4 -11 -7 -20 -8 -21 -27 -16 -104 -34 -143 -34 -40 0 -58 5 -81 25 -47
40 -48 68 -7 231 32 122 36 149 26 171 -11 23 -16 25 -60 21 -46 -5 -49 -4
-42 16 20 53 187 72 236 26z m328 19 c27 -7 44 -20 59 -45 l20 -34 46 32 c59
41 105 57 164 58 38 0 54 -5 78 -27 45 -41 47 -79 11 -216 -48 -178 -41 -215
39 -204 34 4 40 2 40 -14 0 -14 -16 -23 -70 -40 -85 -25 -131 -20 -172 21 -36
37 -37 85 -3 212 41 151 31 198 -37 184 -18 -4 -49 -17 -68 -30 -35 -23 -36
-26 -74 -192 -20 -93 -40 -177 -42 -186 -5 -15 -18 -18 -85 -18 -72 0 -80 2
-75 18 19 64 76 338 76 366 0 43 -26 61 -76 51 -34 -6 -40 -1 -25 23 8 13 111
50 141 51 8 1 32 -4 53 -10z m-1554 -25 c28 -23 31 -32 31 -79 0 -30 -11 -96
-25 -147 -28 -103 -31 -148 -13 -166 26 -26 92 -7 133 38 13 14 33 79 60 198
l40 177 81 3 81 3 -44 -193 c-23 -106 -43 -198 -43 -205 0 -28 33 -45 77 -39
45 6 53 -2 28 -28 -18 -17 -106 -46 -142 -46 -39 0 -90 27 -109 57 -10 15 -19
30 -21 32 -2 3 -16 -7 -31 -21 -48 -45 -106 -68 -172 -68 -51 0 -65 4 -85 24
-39 39 -40 78 -6 213 47 187 40 223 -44 207 -19 -3 -35 -2 -35 2 1 34 69 62
152 63 47 1 62 -3 87 -25z m-383 -1154 c46 -267 87 -502 93 -522 14 -45 59
-85 107 -94 31 -6 35 -10 32 -33 l-3 -26 -304 -3 c-274 -2 -303 -1 -297 14 3
8 6 22 6 30 0 8 10 14 25 14 38 0 121 20 140 34 16 11 15 20 -4 131 -12 66
-24 130 -26 143 l-5 22 -197 -2 -197 -3 -53 -89 c-29 -50 -60 -110 -70 -134
l-17 -45 26 -22 c16 -14 47 -26 77 -30 28 -4 51 -10 51 -13 0 -4 -3 -17 -6
-29 l-6 -23 -234 0 c-195 0 -234 2 -234 14 0 28 13 46 32 46 12 0 39 5 60 12
84 25 118 70 449 598 l314 500 80 -3 79 -2 82 -485z m614 75 c0 -9 -31 -155
-70 -326 -38 -172 -70 -324 -70 -340 0 -37 30 -53 81 -45 49 8 54 -16 9 -39
-123 -64 -250 -25 -250 76 0 22 27 159 61 307 68 298 68 310 7 327 -29 8 -35
13 -28 25 7 11 37 16 117 21 59 3 116 6 126 7 9 1 17 -5 17 -13z m360 -1 c0
-9 -31 -156 -70 -327 -38 -171 -70 -323 -70 -338 0 -37 30 -53 81 -45 49 8 54
-16 9 -39 -121 -63 -250 -25 -250 74 0 20 28 161 62 314 69 305 69 304 5 322
-28 8 -34 13 -27 25 7 11 37 16 117 21 59 3 116 6 126 7 10 1 17 -5 17 -14z
m311 1 c55 -29 64 -92 20 -136 -23 -23 -38 -29 -71 -29 -96 0 -127 119 -42
164 35 20 56 20 93 1z m-76 -269 c18 -8 38 -23 44 -34 19 -35 12 -112 -19
-227 -35 -127 -36 -147 -13 -170 13 -13 27 -16 59 -11 38 5 41 4 37 -14 -4
-14 -24 -26 -72 -40 -82 -26 -133 -19 -173 20 -37 37 -36 74 2 215 47 174 39
214 -40 201 -69 -11 -46 28 31 55 65 22 99 23 144 5z m576 -12 c28 -14 37 -14
101 1 39 9 73 14 75 11 3 -2 -14 -84 -36 -181 -23 -97 -41 -191 -41 -209 0
-45 20 -60 70 -52 70 11 47 -22 -35 -49 -73 -25 -141 -16 -176 23 l-28 31 -25
-20 c-136 -107 -287 -57 -310 102 -22 150 82 310 234 360 35 12 135 2 171 -17z"/>
<path d="M2602 4281 c-67 -109 -122 -201 -122 -205 0 -3 72 -6 160 -6 121 0
160 3 160 13 1 31 -64 397 -70 397 -4 0 -61 -89 -128 -199z"/>
<path d="M3529 4050 c-53 -55 -83 -154 -77 -252 3 -59 8 -73 27 -89 34 -28 81
-24 118 9 28 25 33 39 57 162 14 74 26 141 26 148 0 25 -48 62 -81 62 -24 0
-41 -10 -70 -40z"/>
<path d="M4805 4078 c-78 -61 -127 -345 -70 -408 21 -23 80 -27 105 -7 57 45
100 179 100 309 0 70 -3 82 -25 103 -30 31 -73 32 -110 3z"/>
<path d="M3035 3268 c-3 -13 -23 -104 -46 -203 -22 -99 -43 -189 -46 -199 -5
-18 -1 -19 70 -13 175 13 277 112 277 269 0 43 -6 80 -16 99 -22 43 -83 69
-166 69 -62 0 -68 -2 -73 -22z"/>
<path d="M2876 2568 c-25 -117 -46 -221 -46 -231 0 -24 53 -54 109 -62 147
-19 278 107 289 279 6 90 -8 135 -53 175 -43 37 -90 51 -181 51 l-71 0 -47
-212z"/>
<path d="M3098 1713 c-156 -252 -198 -321 -198 -327 0 -7 314 -8 322 -1 5 5
-59 405 -66 412 -2 2 -29 -35 -58 -84z"/>
<path d="M5109 1330 c-64 -68 -102 -248 -68 -324 13 -28 53 -46 84 -37 56 16
66 34 101 185 18 80 31 153 27 163 -12 35 -36 53 -71 53 -28 0 -43 -8 -73 -40z"/>
<path d="M5376 4921 c-4 -5 -1 -21 5 -35 11 -24 6 -31 -79 -124 -118 -128
-116 -126 -142 -112 -14 8 -26 8 -32 2 -6 -6 28 -45 93 -105 142 -135 203
-154 270 -88 15 16 31 41 35 55 9 39 -20 98 -74 147 l-44 41 40 40 c35 36 42
39 62 28 15 -8 25 -9 33 -1 7 7 -12 31 -63 78 -83 77 -96 87 -104 74z m40
-276 c21 -32 12 -69 -26 -106 -42 -42 -110 -36 -110 10 0 17 90 118 107 120 7
1 20 -10 29 -24z"/>
<path d="M5680 4483 c-29 -24 -31 -31 -28 -73 l3 -47 -28 10 c-19 6 -47 6 -89
-3 -51 -10 -62 -9 -77 4 -10 9 -22 12 -30 7 -10 -7 -4 -22 29 -67 24 -33 46
-63 51 -68 4 -4 32 1 63 13 31 12 69 21 84 21 27 0 72 -24 62 -32 -3 -3 -27
-20 -53 -38 -42 -30 -51 -33 -69 -21 -14 8 -24 9 -30 3 -7 -7 10 -39 52 -96
61 -85 87 -101 75 -46 -6 26 1 33 97 103 147 106 143 104 165 85 12 -11 23
-14 32 -8 11 6 -4 34 -69 124 -114 159 -170 189 -240 129z m170 -93 c11 -11
20 -23 20 -27 0 -5 -27 -27 -60 -50 l-60 -43 -16 25 c-22 34 -11 71 29 95 41
25 62 25 87 0z"/>
<path d="M898 4471 c-27 -17 -57 -48 -73 -75 -51 -87 -43 -165 24 -239 97
-108 249 -101 328 16 59 87 53 173 -15 249 -76 84 -179 103 -264 49z m79 -73
c58 -29 158 -121 171 -155 19 -56 -17 -91 -78 -78 -34 8 -129 75 -179 128 -40
42 -46 91 -16 113 26 19 51 17 102 -8z"/>
<path d="M6032 4109 c3 -30 -1 -33 -117 -95 -66 -35 -129 -64 -139 -64 -11 0
-28 7 -38 16 -16 15 -18 15 -24 1 -3 -10 14 -53 43 -106 36 -67 52 -88 62 -81
8 4 11 14 8 22 -8 21 1 31 65 67 l57 32 30 -59 29 -58 -61 -32 c-57 -30 -62
-31 -84 -17 -13 9 -28 13 -33 10 -12 -8 81 -195 97 -195 6 0 13 15 15 33 3 30
10 36 123 94 66 34 126 62 134 63 8 0 22 -7 32 -16 40 -37 37 0 -9 91 -48 97
-68 116 -74 68 -2 -22 -14 -34 -53 -55 l-50 -27 -27 52 c-15 29 -27 55 -28 59
0 11 76 48 98 48 10 0 23 -5 30 -12 9 -9 15 -9 23 -1 7 7 -3 37 -35 102 -48
94 -78 119 -74 60z"/>
<path d="M641 4068 c-57 -30 -84 -77 -77 -135 5 -39 4 -42 -16 -40 -18 2 -27
-11 -55 -76 -19 -44 -32 -81 -29 -85 3 -3 22 3 41 14 l35 19 191 -95 c106 -52
198 -101 205 -108 8 -8 11 -24 7 -42 -4 -22 -2 -30 8 -30 8 0 39 50 71 114 45
90 54 115 43 120 -9 3 -22 -5 -31 -19 -21 -32 -42 -31 -105 0 l-50 26 30 34
c17 19 35 52 42 73 32 108 -77 229 -223 248 -33 4 -53 0 -87 -18z m136 -133
c76 -38 108 -67 118 -107 8 -31 -22 -68 -55 -68 -11 0 -70 25 -130 55 -103 52
-110 57 -110 85 0 40 31 70 74 70 18 0 64 -16 103 -35z"/>
<path d="M425 3669 c-86 -243 -104 -304 -92 -311 7 -5 17 0 26 12 7 11 21 20
30 20 14 0 210 -63 264 -85 18 -8 25 -65 7 -65 -5 0 -10 -6 -10 -13 0 -37 -39
-49 -302 -94 -145 -25 -264 -46 -266 -48 -2 -1 -5 -18 -8 -37 l-6 -34 227
-134 c124 -73 233 -143 241 -154 8 -11 14 -30 14 -43 0 -26 19 -41 30 -23 4 6
13 44 19 83 7 40 14 82 18 95 8 34 -23 28 -42 -8 -10 -19 -23 -30 -37 -30 -26
0 -108 47 -108 62 0 33 25 145 34 155 7 7 41 14 76 15 l65 3 3 -32 c2 -20 9
-33 17 -33 13 0 19 21 46 170 6 36 29 116 50 179 22 62 39 119 39 127 0 21
-19 17 -39 -7 l-17 -22 -146 49 -146 48 13 35 c14 42 45 61 98 61 56 0 48 25
-15 46 -29 9 -59 19 -65 21 -7 3 -15 -1 -18 -8z m-19 -706 c-9 -60 -15 -83
-24 -83 -4 0 -45 22 -91 49 l-85 49 35 7 c18 3 54 10 79 14 92 18 93 17 86
-36z"/>
<path d="M6117 3546 c-64 -18 -118 -63 -141 -120 -18 -41 -19 -53 -8 -103 7
-36 22 -67 39 -86 29 -31 101 -69 115 -61 14 9 9 34 -6 34 -8 0 -28 12 -45 26
-25 21 -31 33 -31 66 0 76 94 133 218 133 45 0 57 -4 73 -24 27 -33 20 -45
-30 -52 -50 -7 -64 -19 -64 -58 0 -40 19 -61 57 -61 68 0 104 63 85 149 -14
64 -44 107 -92 135 -54 31 -110 38 -170 22z"/>
<path d="M6190 2777 c-63 -18 -112 -50 -159 -103 -54 -61 -74 -126 -69 -219 3
-64 7 -79 34 -112 45 -56 104 -83 184 -83 36 0 82 5 102 10 45 13 125 67 152
103 19 25 19 28 4 44 -16 15 -19 14 -50 -17 -43 -42 -86 -60 -146 -60 -38 0
-53 5 -70 23 -20 22 -42 75 -42 103 0 6 39 19 87 28 151 30 231 80 248 154 9
43 -17 97 -55 117 -43 22 -163 28 -220 12z m90 -47 c29 -29 28 -117 -1 -149
-27 -29 -79 -51 -119 -51 -25 0 -30 4 -26 18 2 9 8 33 11 52 10 50 53 126 79
138 30 15 34 14 56 -8z"/>
<path d="M6716 2780 c-59 -15 -115 -51 -138 -88 -32 -52 -22 -126 24 -168 20
-18 63 -42 96 -54 95 -35 117 -65 91 -123 -12 -27 -47 -47 -83 -47 -18 0 -25
7 -29 28 -9 44 -50 96 -84 105 -66 19 -124 -44 -93 -101 30 -53 73 -67 205
-67 113 0 123 2 167 27 59 36 93 99 85 161 -8 56 -52 96 -145 131 -74 29 -92
46 -92 89 0 26 50 77 74 77 7 0 21 -20 30 -45 30 -78 101 -110 146 -65 37 37
22 98 -32 126 -37 19 -167 27 -222 14z"/>
<path d="M7227 2776 c-91 -25 -142 -81 -141 -155 1 -60 28 -100 85 -127 143
-66 144 -67 147 -106 4 -47 -32 -88 -76 -88 -25 0 -32 6 -46 45 -20 50 -66 95
-100 95 -13 0 -35 -9 -50 -21 -36 -28 -36 -76 2 -111 42 -39 92 -51 201 -46
79 3 104 8 141 28 59 33 90 80 90 137 0 81 -29 113 -153 162 -66 27 -91 56
-82 94 8 32 32 53 68 62 21 6 27 4 27 -9 0 -27 38 -94 59 -106 33 -17 71 -11
96 15 32 31 31 56 0 93 -42 50 -162 66 -268 38z"/>
<path d="M550 2479 c0 -36 -19 -57 -82 -91 -76 -40 -134 -95 -143 -137 -4 -17
-9 -31 -11 -31 -3 0 -22 9 -43 20 -22 11 -57 22 -79 26 -62 10 -69 18 -43 49
28 37 27 59 -5 84 -31 24 -43 26 -78 10 -36 -17 -49 -62 -32 -104 19 -44 45
-60 144 -84 94 -23 137 -49 146 -87 4 -15 6 -28 4 -29 -5 -5 -157 -25 -190
-25 -24 0 -32 6 -41 30 -6 17 -18 30 -27 30 -13 0 -14 -14 -1 -135 13 -118 17
-135 33 -135 12 0 18 8 18 23 0 51 12 55 238 81 117 14 219 23 228 19 8 -3 18
-19 21 -35 5 -27 33 -38 35 -13 1 19 -24 250 -28 257 -9 14 -34 -5 -34 -26 0
-11 -4 -27 -9 -34 -8 -13 -106 -31 -168 -32 -30 0 -33 3 -33 31 0 43 40 78
146 125 l86 39 -6 65 c-10 102 -17 130 -32 130 -8 0 -14 -9 -14 -21z"/>
<path d="M627 1873 c-4 -3 -7 -23 -7 -43 0 -43 15 -35 -244 -135 -93 -36 -177
-63 -186 -60 -9 3 -22 16 -28 30 -8 16 -17 23 -27 19 -19 -8 -27 18 98 -304
70 -180 107 -265 117 -265 11 0 15 11 15 37 0 20 3 39 6 42 14 14 392 156 415
156 16 0 28 -8 36 -25 6 -14 14 -25 18 -25 3 0 7 -21 9 -46 2 -46 -1 -50 -158
-258 -89 -117 -161 -216 -161 -222 0 -5 9 -20 19 -33 l18 -23 251 56 c138 31
262 56 275 56 14 0 35 -9 49 -19 13 -11 30 -16 36 -12 18 11 -94 182 -114 174
-10 -3 -13 -12 -8 -22 24 -55 0 -84 -81 -96 -40 -6 -40 -6 -77 52 -20 32 -39
65 -43 73 -6 16 63 119 79 120 6 0 20 -10 32 -21 13 -12 30 -19 38 -16 12 5 0
30 -57 117 -39 61 -75 116 -79 123 -4 7 -28 67 -53 135 -50 130 -72 153 -77
81 l-3 -42 -213 -83 -213 -82 -18 41 c-29 70 -55 146 -50 151 2 2 98 40 213
85 213 82 234 86 250 46 5 -15 36 -22 36 -8 0 14 -95 253 -101 253 -3 0 -9 -3
-12 -7z m231 -973 c17 -27 32 -53 32 -58 0 -8 -180 -55 -187 -48 -5 4 109 156
117 156 3 0 20 -23 38 -50z"/>
<path d="M5710 1453 c-46 -8 -115 -34 -122 -46 -17 -27 -8 -35 37 -29 53 5 75
-8 75 -47 0 -14 -20 -106 -44 -204 -32 -130 -40 -180 -31 -183 6 -3 45 -4 86
-2 l74 3 45 185 46 184 44 28 c46 29 98 36 118 16 18 -18 15 -50 -19 -178 -35
-132 -34 -172 6 -210 34 -32 123 -39 197 -15 53 18 68 29 68 52 0 9 -13 11
-45 6 -84 -11 -92 21 -45 187 39 138 39 180 1 222 -28 32 -33 33 -103 33 -74
0 -100 -9 -190 -69 -27 -17 -27 -17 -42 12 -21 40 -94 66 -156 55z"/>
<path d="M6584 1449 c-243 -58 -330 -390 -128 -490 41 -20 64 -24 139 -24 79
0 97 4 142 28 51 26 123 89 123 106 0 5 -7 14 -15 21 -13 11 -22 8 -53 -23
-66 -64 -156 -78 -211 -32 -80 68 -53 308 42 365 36 22 59 25 87 10 18 -9 18
-11 -3 -59 -26 -63 -15 -95 36 -109 73 -20 129 17 131 86 1 47 -23 86 -67 108
-38 20 -163 28 -223 13z"/>
<path d="M7180 1451 c-55 -11 -130 -51 -170 -91 -97 -97 -118 -262 -43 -350
47 -57 96 -75 203 -75 89 0 99 2 158 34 34 19 76 50 93 69 30 34 30 34 9 49
-19 13 -24 11 -65 -25 -46 -41 -78 -52 -147 -52 -66 0 -108 45 -108 116 0 25
-3 24 110 44 158 29 240 87 240 171 0 94 -121 141 -280 110z m77 -39 c6 -4 17
-20 22 -35 34 -88 -17 -159 -124 -174 l-48 -6 7 43 c19 119 91 205 143 172z"/>
</g>
</svg>
